<?xml version="1.0" encoding="UTF-8" standalone="no"?>
<!DOCTYPE svg PUBLIC "-//W3C//DTD SVG 1.1//EN"
 "http://www.w3.org/Graphics/SVG/1.1/DTD/svg11.dtd">
<!-- Generated by graphviz version 2.38.0 (20140413.2041)
 -->
<!-- Title: dependencies Pages: 1 -->
<svg width="2046pt" height="561pt"
 viewBox="0.00 0.00 2046.00 561.00" xmlns="http://www.w3.org/2000/svg" xmlns:xlink="http://www.w3.org/1999/xlink">
<g id="graph0" class="graph" transform="scale(1 1) rotate(0) translate(4 557)">
<title>dependencies</title>
<polygon fill="white" stroke="none" points="-4,4 -4,-557 2042,-557 2042,4 -4,4"/>
<text text-anchor="start" x="998.009" y="-42.4" font-family="sans-serif" font-weight="bold" font-size="14.00">Legend</text>
<polygon fill="#ffffb3" stroke="none" points="785,-10 785,-30 805,-30 805,-10 785,-10"/>
<text text-anchor="start" x="808.629" y="-15.4" font-family="sans-serif" font-size="14.00"> &#160;Declarations</text>
<polygon fill="#8dd3c7" stroke="none" points="898,-10 898,-30 918,-30 918,-10 898,-10"/>
<text text-anchor="start" x="921.725" y="-15.4" font-family="sans-serif" font-size="14.00"> &#160;Module</text>
<polygon fill="#80b1d3" stroke="none" points="984,-10 984,-30 1004,-30 1004,-10 984,-10"/>
<text text-anchor="start" x="1007.78" y="-15.4" font-family="sans-serif" font-size="14.00"> &#160;Bootstrap</text>
<polygon fill="#fdb462" stroke="none" points="1081,-10 1081,-30 1101,-30 1101,-10 1081,-10"/>
<text text-anchor="start" x="1104.67" y="-15.4" font-family="sans-serif" font-size="14.00"> &#160;Providers</text>
<polygon fill="#fb8072" stroke="none" points="1177,-10 1177,-30 1197,-30 1197,-10 1177,-10"/>
<text text-anchor="start" x="1200.73" y="-15.4" font-family="sans-serif" font-size="14.00"> &#160;Exports</text>
<g id="clust1" class="cluster"><title>cluster_AppModule</title>
<polygon fill="none" stroke="black" stroke-dasharray="1,5" points="680,-341 680,-545 1707,-545 1707,-341 680,-341"/>
</g>
<g id="clust2" class="cluster"><title>cluster_AppModule_declarations</title>
<polygon fill="none" stroke="black" points="1577,-349 1577,-401 1699,-401 1699,-349 1577,-349"/>
</g>
<g id="clust4" class="cluster"><title>cluster_AppModule_imports</title>
<polygon fill="none" stroke="black" points="688,-349 688,-401 1569,-401 1569,-349 688,-349"/>
</g>
<g id="clust6" class="cluster"><title>cluster_AppModule_bootstrap</title>
<polygon fill="none" stroke="black" points="1171,-485 1171,-537 1295,-537 1295,-485 1171,-485"/>
</g>
<g id="clust8" class="cluster"><title>cluster_MediumEditorDemoModule</title>
<polygon fill="none" stroke="black" stroke-dasharray="1,5" points="1123,-265 1123,-333 2030,-333 2030,-265 1123,-265"/>
</g>
<g id="clust9" class="cluster"><title>cluster_MediumEditorDemoModule_declarations</title>
<polygon fill="none" stroke="black" points="1808,-273 1808,-325 2022,-325 2022,-273 1808,-273"/>
</g>
<g id="clust11" class="cluster"><title>cluster_MediumEditorDemoModule_imports</title>
<polygon fill="none" stroke="black" points="1357,-273 1357,-325 1800,-325 1800,-273 1357,-273"/>
</g>
<g id="clust12" class="cluster"><title>cluster_MediumEditorDemoModule_exports</title>
<polygon fill="none" stroke="black" points="1131,-273 1131,-325 1349,-325 1349,-273 1131,-273"/>
</g>
<g id="clust15" class="cluster"><title>cluster_MediumEditorModule</title>
<polygon fill="none" stroke="black" stroke-dasharray="1,5" points="581,-70 581,-333 1115,-333 1115,-70 581,-70"/>
</g>
<g id="clust16" class="cluster"><title>cluster_MediumEditorModule_declarations</title>
<polygon fill="none" stroke="black" points="842,-143 842,-195 1022,-195 1022,-143 842,-143"/>
</g>
<g id="clust17" class="cluster"><title>cluster_MediumEditorModule_MediumEditorComponent_providers</title>
<polygon fill="none" stroke="black" points="589,-78 589,-130 1107,-130 1107,-78 589,-78"/>
</g>
<g id="clust19" class="cluster"><title>cluster_MediumEditorModule_exports</title>
<polygon fill="none" stroke="black" points="923,-273 923,-325 1107,-325 1107,-273 923,-273"/>
</g>
<g id="clust22" class="cluster"><title>cluster_RebirthMediumEditorModule</title>
<polygon fill="none" stroke="black" stroke-dasharray="1,5" points="1715,-341 1715,-409 1893,-409 1893,-341 1715,-341"/>
</g>
<g id="clust25" class="cluster"><title>cluster_RebirthMediumEditorModule_exports</title>
<polygon fill="none" stroke="black" points="1723,-349 1723,-401 1885,-401 1885,-349 1723,-349"/>
</g>
<g id="clust28" class="cluster"><title>cluster_SharedModule</title>
<polygon fill="none" stroke="black" stroke-dasharray="1,5" points="8,-265 8,-477 573,-477 573,-265 8,-265"/>
</g>
<g id="clust29" class="cluster"><title>cluster_SharedModule_declarations</title>
<polygon fill="none" stroke="black" points="278,-273 278,-325 565,-325 565,-273 278,-273"/>
</g>
<g id="clust32" class="cluster"><title>cluster_SharedModule_imports</title>
<polygon fill="none" stroke="black" points="16,-273 16,-325 270,-325 270,-273 16,-273"/>
</g>
<g id="clust33" class="cluster"><title>cluster_SharedModule_exports</title>
<polygon fill="none" stroke="black" points="71,-417 71,-469 565,-469 565,-417 71,-417"/>
</g>
<!-- AppComponent -->
<g id="node1" class="node"><title>AppComponent</title>
<polygon fill="#ffffb3" stroke="black" points="1690.94,-393 1585.06,-393 1585.06,-357 1690.94,-357 1690.94,-393"/>
<text text-anchor="middle" x="1638" y="-370.8" font-family="Times,serif" font-size="14.00">AppComponent</text>
</g>
<!-- AppModule -->
<g id="node2" class="node"><title>AppModule</title>
<polygon fill="#8dd3c7" stroke="black" points="1274.66,-461 1271.66,-465 1250.66,-465 1247.66,-461 1191.34,-461 1191.34,-425 1274.66,-425 1274.66,-461"/>
<text text-anchor="middle" x="1233" y="-438.8" font-family="Times,serif" font-size="14.00">AppModule</text>
</g>
<!-- AppComponent&#45;&gt;AppModule -->
<g id="edge1" class="edge"><title>AppComponent&#45;&gt;AppModule</title>
<path fill="none" stroke="black" d="M1638,-393.292C1638,-415.206 1638,-449 1638,-449 1638,-449 1284.82,-449 1284.82,-449"/>
<polygon fill="black" stroke="black" points="1284.82,-445.5 1274.82,-449 1284.82,-452.5 1284.82,-445.5"/>
</g>
<!-- AppComponent  -->
<g id="node8" class="node"><title>AppComponent </title>
<polygon fill="#80b1d3" stroke="black" points="1287.44,-529 1178.56,-529 1178.56,-493 1287.44,-493 1287.44,-529"/>
<text text-anchor="middle" x="1233" y="-506.8" font-family="Times,serif" font-size="14.00">AppComponent </text>
</g>
<!-- AppModule&#45;&gt;AppComponent  -->
<g id="edge7" class="edge"><title>AppModule&#45;&gt;AppComponent </title>
<path fill="none" stroke="black" stroke-dasharray="1,5" d="M1233,-461.223C1233,-461.223 1233,-482.727 1233,-482.727"/>
<polygon fill="black" stroke="black" points="1229.5,-482.727 1233,-492.727 1236.5,-482.727 1229.5,-482.727"/>
</g>
<!-- BrowserModule -->
<g id="node3" class="node"><title>BrowserModule</title>
<polygon fill="#8dd3c7" stroke="black" points="1366.47,-393 1363.47,-397 1342.47,-397 1339.47,-393 1259.53,-393 1259.53,-357 1366.47,-357 1366.47,-393"/>
<text text-anchor="middle" x="1313" y="-370.8" font-family="Times,serif" font-size="14.00">BrowserModule</text>
</g>
<!-- BrowserModule&#45;&gt;AppModule -->
<g id="edge2" class="edge"><title>BrowserModule&#45;&gt;AppModule</title>
<path fill="none" stroke="black" d="M1267.17,-393.223C1267.17,-393.223 1267.17,-414.727 1267.17,-414.727"/>
<polygon fill="black" stroke="black" points="1263.67,-414.727 1267.17,-424.727 1270.67,-414.727 1263.67,-414.727"/>
</g>
<!-- RouterModule.forRoot(args) -->
<g id="node4" class="node"><title>RouterModule.forRoot(args)</title>
<polygon fill="#8dd3c7" stroke="black" points="1241.84,-393 1238.84,-397 1217.84,-397 1214.84,-393 1064.16,-393 1064.16,-357 1241.84,-357 1241.84,-393"/>
<text text-anchor="middle" x="1153" y="-370.8" font-family="Times,serif" font-size="14.00">RouterModule.forRoot(args)</text>
</g>
<!-- RouterModule.forRoot(args)&#45;&gt;AppModule -->
<g id="edge3" class="edge"><title>RouterModule.forRoot(args)&#45;&gt;AppModule</title>
<path fill="none" stroke="black" d="M1216.42,-393.223C1216.42,-393.223 1216.42,-414.727 1216.42,-414.727"/>
<polygon fill="black" stroke="black" points="1212.92,-414.727 1216.42,-424.727 1219.92,-414.727 1212.92,-414.727"/>
</g>
<!-- SharedModule.forRoot() -->
<g id="node5" class="node"><title>SharedModule.forRoot()</title>
<polygon fill="#8dd3c7" stroke="black" points="1046.29,-393 1043.29,-397 1022.29,-397 1019.29,-393 891.708,-393 891.708,-357 1046.29,-357 1046.29,-393"/>
<text text-anchor="middle" x="969" y="-370.8" font-family="Times,serif" font-size="14.00">SharedModule.forRoot()</text>
</g>
<!-- SharedModule.forRoot()&#45;&gt;AppModule -->
<g id="edge4" class="edge"><title>SharedModule.forRoot()&#45;&gt;AppModule</title>
<path fill="none" stroke="black" d="M969,-393.267C969,-411.555 969,-437 969,-437 969,-437 1181.17,-437 1181.17,-437"/>
<polygon fill="black" stroke="black" points="1181.17,-440.5 1191.17,-437 1181.17,-433.5 1181.17,-440.5"/>
</g>
<!-- RebirthNGModule.forRoot() -->
<g id="node6" class="node"><title>RebirthNGModule.forRoot()</title>
<polygon fill="#8dd3c7" stroke="black" points="874.126,-393 871.126,-397 850.126,-397 847.126,-393 695.874,-393 695.874,-357 874.126,-357 874.126,-393"/>
<text text-anchor="middle" x="785" y="-370.8" font-family="Times,serif" font-size="14.00">RebirthNGModule.forRoot()</text>
</g>
<!-- RebirthNGModule.forRoot()&#45;&gt;AppModule -->
<g id="edge5" class="edge"><title>RebirthNGModule.forRoot()&#45;&gt;AppModule</title>
<path fill="none" stroke="black" d="M785,-393.292C785,-415.206 785,-449 785,-449 785,-449 1181.26,-449 1181.26,-449"/>
<polygon fill="black" stroke="black" points="1181.26,-452.5 1191.26,-449 1181.26,-445.5 1181.26,-452.5"/>
</g>
<!-- MediumEditorDemoModule -->
<g id="node7" class="node"><title>MediumEditorDemoModule</title>
<polygon fill="#8dd3c7" stroke="black" points="1561.2,-393 1558.2,-397 1537.2,-397 1534.2,-393 1384.8,-393 1384.8,-357 1561.2,-357 1561.2,-393"/>
<text text-anchor="middle" x="1473" y="-370.8" font-family="Times,serif" font-size="14.00">MediumEditorDemoModule</text>
</g>
<!-- MediumEditorDemoModule&#45;&gt;AppModule -->
<g id="edge6" class="edge"><title>MediumEditorDemoModule&#45;&gt;AppModule</title>
<path fill="none" stroke="black" d="M1473,-393.267C1473,-411.555 1473,-437 1473,-437 1473,-437 1284.8,-437 1284.8,-437"/>
<polygon fill="black" stroke="black" points="1284.8,-433.5 1274.8,-437 1284.8,-440.5 1284.8,-433.5"/>
</g>
<!-- MediumEditorDemoComponent  -->
<g id="node13" class="node"><title>MediumEditorDemoComponent </title>
<polygon fill="#fb8072" stroke="black" points="1340.98,-317 1139.02,-317 1139.02,-281 1340.98,-281 1340.98,-317"/>
<text text-anchor="middle" x="1240" y="-294.8" font-family="Times,serif" font-size="14.00">MediumEditorDemoComponent </text>
</g>
<!-- MediumEditorDemoModule&#45;&gt;MediumEditorDemoComponent  -->
<g id="edge12" class="edge"><title>MediumEditorDemoModule&#45;&gt;MediumEditorDemoComponent </title>
<path fill="none" stroke="black" stroke-dasharray="5,2" d="M1410.16,-356.68C1410.16,-348.212 1410.16,-340 1410.16,-340 1410.16,-340 1300.13,-340 1300.13,-340 1300.13,-340 1300.13,-327.103 1300.13,-327.103"/>
<polygon fill="black" stroke="black" points="1303.63,-327.103 1300.13,-317.103 1296.63,-327.103 1303.63,-327.103"/>
</g>
<!-- MediumEditorDemoComponent -->
<g id="node9" class="node"><title>MediumEditorDemoComponent</title>
<polygon fill="#ffffb3" stroke="black" points="2013.98,-317 1816.02,-317 1816.02,-281 2013.98,-281 2013.98,-317"/>
<text text-anchor="middle" x="1915" y="-294.8" font-family="Times,serif" font-size="14.00">MediumEditorDemoComponent</text>
</g>
<!-- MediumEditorDemoComponent&#45;&gt;MediumEditorDemoModule -->
<g id="edge8" class="edge"><title>MediumEditorDemoComponent&#45;&gt;MediumEditorDemoModule</title>
<path fill="none" stroke="black" d="M1846.38,-317.24C1846.38,-332.571 1846.38,-352 1846.38,-352 1846.38,-352 1544.51,-352 1544.51,-352 1544.51,-352 1544.51,-352.488 1544.51,-352.488"/>
<polygon fill="black" stroke="black" points="1541.01,-346.878 1544.51,-356.878 1548.01,-346.878 1541.01,-346.878"/>
</g>
<!-- CommonModule -->
<g id="node10" class="node"><title>CommonModule</title>
<polygon fill="#8dd3c7" stroke="black" points="1589.67,-317 1586.67,-321 1565.67,-321 1562.67,-317 1478.33,-317 1478.33,-281 1589.67,-281 1589.67,-317"/>
<text text-anchor="middle" x="1534" y="-294.8" font-family="Times,serif" font-size="14.00">CommonModule</text>
</g>
<!-- CommonModule&#45;&gt;MediumEditorDemoModule -->
<g id="edge9" class="edge"><title>CommonModule&#45;&gt;MediumEditorDemoModule</title>
<path fill="none" stroke="black" d="M1511.34,-317.011C1511.34,-317.011 1511.34,-346.855 1511.34,-346.855"/>
<polygon fill="black" stroke="black" points="1507.84,-346.855 1511.34,-356.855 1514.84,-346.855 1507.84,-346.855"/>
</g>
<!-- MediumEditorModule -->
<g id="node15" class="node"><title>MediumEditorModule</title>
<polygon fill="#8dd3c7" stroke="black" points="1095.98,-252 1092.98,-256 1071.98,-256 1068.98,-252 954.015,-252 954.015,-216 1095.98,-216 1095.98,-252"/>
<text text-anchor="middle" x="1025" y="-229.8" font-family="Times,serif" font-size="14.00">MediumEditorModule</text>
</g>
<!-- CommonModule&#45;&gt;MediumEditorModule -->
<g id="edge15" class="edge"><title>CommonModule&#45;&gt;MediumEditorModule</title>
<path fill="none" stroke="black" d="M1534,-280.977C1534,-263.627 1534,-240 1534,-240 1534,-240 1106.04,-240 1106.04,-240"/>
<polygon fill="black" stroke="black" points="1106.04,-236.5 1096.04,-240 1106.04,-243.5 1106.04,-236.5"/>
</g>
<!-- SharedModule -->
<g id="node21" class="node"><title>SharedModule</title>
<polygon fill="#8dd3c7" stroke="black" points="439.423,-393 436.423,-397 415.423,-397 412.423,-393 340.577,-393 340.577,-357 439.423,-357 439.423,-393"/>
<text text-anchor="middle" x="390" y="-370.8" font-family="Times,serif" font-size="14.00">SharedModule</text>
</g>
<!-- CommonModule&#45;&gt;SharedModule -->
<g id="edge21" class="edge"><title>CommonModule&#45;&gt;SharedModule</title>
<path fill="none" stroke="black" d="M1494.75,-317.143C1494.75,-323.461 1494.75,-329 1494.75,-329 1494.75,-329 397.011,-329 397.011,-329 397.011,-329 397.011,-346.82 397.011,-346.82"/>
<polygon fill="black" stroke="black" points="393.511,-346.82 397.011,-356.82 400.511,-346.82 393.511,-346.82"/>
</g>
<!-- RebirthMediumEditorModule -->
<g id="node11" class="node"><title>RebirthMediumEditorModule</title>
<polygon fill="#8dd3c7" stroke="black" points="1791.98,-317 1788.98,-321 1767.98,-321 1764.98,-317 1608.02,-317 1608.02,-281 1791.98,-281 1791.98,-317"/>
<text text-anchor="middle" x="1700" y="-294.8" font-family="Times,serif" font-size="14.00">RebirthMediumEditorModule</text>
</g>
<!-- RebirthMediumEditorModule&#45;&gt;MediumEditorDemoModule -->
<g id="edge10" class="edge"><title>RebirthMediumEditorModule&#45;&gt;MediumEditorDemoModule</title>
<path fill="none" stroke="black" d="M1663.15,-317.037C1663.15,-330.291 1663.15,-346 1663.15,-346 1663.15,-346 1527.93,-346 1527.93,-346 1527.93,-346 1527.93,-347.08 1527.93,-347.08"/>
<polygon fill="black" stroke="black" points="1524.43,-346.798 1527.93,-356.799 1531.43,-346.799 1524.43,-346.798"/>
</g>
<!-- MediumEditorModule  -->
<g id="node18" class="node"><title>MediumEditorModule </title>
<polygon fill="#fb8072" stroke="black" points="1876.99,-393 1731.01,-393 1731.01,-357 1876.99,-357 1876.99,-393"/>
<text text-anchor="middle" x="1804" y="-370.8" font-family="Times,serif" font-size="14.00">MediumEditorModule </text>
</g>
<!-- RebirthMediumEditorModule&#45;&gt;MediumEditorModule  -->
<g id="edge18" class="edge"><title>RebirthMediumEditorModule&#45;&gt;MediumEditorModule </title>
<path fill="none" stroke="black" stroke-dasharray="5,2" d="M1761.62,-317.011C1761.62,-317.011 1761.62,-346.855 1761.62,-346.855"/>
<polygon fill="black" stroke="black" points="1758.12,-346.855 1761.62,-356.855 1765.12,-346.855 1758.12,-346.855"/>
</g>
<!-- RebirthMediumEditorModule&#45;&gt;SharedModule -->
<g id="edge25" class="edge"><title>RebirthMediumEditorModule&#45;&gt;SharedModule</title>
<path fill="none" stroke="black" d="M1635.58,-317.422C1635.58,-326.279 1635.58,-335 1635.58,-335 1635.58,-335 415.752,-335 415.752,-335 415.752,-335 415.752,-346.873 415.752,-346.873"/>
<polygon fill="black" stroke="black" points="412.252,-346.873 415.752,-356.873 419.252,-346.873 412.252,-346.873"/>
</g>
<!-- FormsModule -->
<g id="node12" class="node"><title>FormsModule</title>
<polygon fill="#8dd3c7" stroke="black" points="1460.83,-317 1457.83,-321 1436.83,-321 1433.83,-317 1365.17,-317 1365.17,-281 1460.83,-281 1460.83,-317"/>
<text text-anchor="middle" x="1413" y="-294.8" font-family="Times,serif" font-size="14.00">FormsModule</text>
</g>
<!-- FormsModule&#45;&gt;MediumEditorDemoModule -->
<g id="edge11" class="edge"><title>FormsModule&#45;&gt;MediumEditorDemoModule</title>
<path fill="none" stroke="black" d="M1435.41,-317.011C1435.41,-317.011 1435.41,-346.855 1435.41,-346.855"/>
<polygon fill="black" stroke="black" points="1431.91,-346.855 1435.41,-356.855 1438.91,-346.855 1431.91,-346.855"/>
</g>
<!-- FormsModule&#45;&gt;SharedModule -->
<g id="edge22" class="edge"><title>FormsModule&#45;&gt;SharedModule</title>
<path fill="none" stroke="black" d="M1375.69,-317.19C1375.69,-320.538 1375.69,-323 1375.69,-323 1375.69,-323 378.271,-323 378.271,-323 378.271,-323 378.271,-346.813 378.271,-346.813"/>
<polygon fill="black" stroke="black" points="374.771,-346.813 378.271,-356.813 381.771,-346.813 374.771,-346.813"/>
</g>
<!-- MediumEditorComponent -->
<g id="node14" class="node"><title>MediumEditorComponent</title>
<polygon fill="#ffffb3" stroke="black" points="1013.77,-187 850.233,-187 850.233,-151 1013.77,-151 1013.77,-187"/>
<text text-anchor="middle" x="932" y="-164.8" font-family="Times,serif" font-size="14.00">MediumEditorComponent</text>
</g>
<!-- MediumEditorComponent&#45;&gt;MediumEditorModule -->
<g id="edge13" class="edge"><title>MediumEditorComponent&#45;&gt;MediumEditorModule</title>
<path fill="none" stroke="black" d="M983.946,-187.106C983.946,-187.106 983.946,-205.991 983.946,-205.991"/>
<polygon fill="black" stroke="black" points="980.446,-205.991 983.946,-215.991 987.446,-205.991 980.446,-205.991"/>
</g>
<!-- MediumEditorModule&#45;&gt;RebirthMediumEditorModule -->
<g id="edge17" class="edge"><title>MediumEditorModule&#45;&gt;RebirthMediumEditorModule</title>
<path fill="none" stroke="black" d="M1096.28,-228C1269.79,-228 1700,-228 1700,-228 1700,-228 1700,-270.716 1700,-270.716"/>
<polygon fill="black" stroke="black" points="1696.5,-270.716 1700,-280.716 1703.5,-270.716 1696.5,-270.716"/>
</g>
<!-- MediumEditorComponent  -->
<g id="node17" class="node"><title>MediumEditorComponent </title>
<polygon fill="#fb8072" stroke="black" points="1098.77,-317 931.233,-317 931.233,-281 1098.77,-281 1098.77,-317"/>
<text text-anchor="middle" x="1015" y="-294.8" font-family="Times,serif" font-size="14.00">MediumEditorComponent </text>
</g>
<!-- MediumEditorModule&#45;&gt;MediumEditorComponent  -->
<g id="edge16" class="edge"><title>MediumEditorModule&#45;&gt;MediumEditorComponent </title>
<path fill="none" stroke="black" stroke-dasharray="5,2" d="M1025,-252.106C1025,-252.106 1025,-270.991 1025,-270.991"/>
<polygon fill="black" stroke="black" points="1021.5,-270.991 1025,-280.991 1028.5,-270.991 1021.5,-270.991"/>
</g>
<!-- { provide: NG_VALUE_ACCESSOR, useExisting: , multi: &#160;} -->
<g id="node16" class="node"><title>{ provide: NG_VALUE_ACCESSOR, useExisting: , multi: &#160;}</title>
<ellipse fill="#fdb462" stroke="black" cx="848" cy="-104" rx="251.499" ry="18"/>
<text text-anchor="middle" x="848" y="-99.8" font-family="Times,serif" font-size="14.00">{ provide: NG_VALUE_ACCESSOR, useExisting: , multi: &#160;}</text>
</g>
<!-- { provide: NG_VALUE_ACCESSOR, useExisting: , multi: &#160;}&#45;&gt;MediumEditorComponent -->
<g id="edge14" class="edge"><title>{ provide: NG_VALUE_ACCESSOR, useExisting: , multi: &#160;}&#45;&gt;MediumEditorComponent</title>
<path fill="none" stroke="black" d="M932,-121.078C932,-121.078 932,-140.899 932,-140.899"/>
<polygon fill="black" stroke="black" points="928.5,-140.899 932,-150.899 935.5,-140.899 928.5,-140.899"/>
</g>
<!-- DocComponent -->
<g id="node19" class="node"><title>DocComponent</title>
<polygon fill="#ffffb3" stroke="black" points="557.154,-317 452.846,-317 452.846,-281 557.154,-281 557.154,-317"/>
<text text-anchor="middle" x="505" y="-294.8" font-family="Times,serif" font-size="14.00">DocComponent</text>
</g>
<!-- DocComponent&#45;&gt;SharedModule -->
<g id="edge19" class="edge"><title>DocComponent&#45;&gt;SharedModule</title>
<path fill="none" stroke="black" d="M491.5,-317.027C491.5,-337.767 491.5,-369 491.5,-369 491.5,-369 449.263,-369 449.263,-369"/>
<polygon fill="black" stroke="black" points="449.263,-365.5 439.263,-369 449.263,-372.5 449.263,-365.5"/>
</g>
<!-- DocContentComponent -->
<g id="node20" class="node"><title>DocContentComponent</title>
<polygon fill="#ffffb3" stroke="black" points="434.486,-317 285.514,-317 285.514,-281 434.486,-281 434.486,-317"/>
<text text-anchor="middle" x="360" y="-294.8" font-family="Times,serif" font-size="14.00">DocContentComponent</text>
</g>
<!-- DocContentComponent&#45;&gt;SharedModule -->
<g id="edge20" class="edge"><title>DocContentComponent&#45;&gt;SharedModule</title>
<path fill="none" stroke="black" d="M359.53,-317.011C359.53,-317.011 359.53,-346.855 359.53,-346.855"/>
<polygon fill="black" stroke="black" points="356.03,-346.855 359.53,-356.855 363.03,-346.855 356.03,-346.855"/>
</g>
<!-- CommonModule  -->
<g id="node24" class="node"><title>CommonModule </title>
<polygon fill="#fb8072" stroke="black" points="194.668,-461 79.3323,-461 79.3323,-425 194.668,-425 194.668,-461"/>
<text text-anchor="middle" x="137" y="-438.8" font-family="Times,serif" font-size="14.00">CommonModule </text>
</g>
<!-- SharedModule&#45;&gt;CommonModule  -->
<g id="edge26" class="edge"><title>SharedModule&#45;&gt;CommonModule </title>
<path fill="none" stroke="black" stroke-dasharray="5,2" d="M340.619,-379C278.365,-379 179.379,-379 179.379,-379 179.379,-379 179.379,-414.831 179.379,-414.831"/>
<polygon fill="black" stroke="black" points="175.879,-414.831 179.379,-424.831 182.879,-414.831 175.879,-414.831"/>
</g>
<!-- FormsModule  -->
<g id="node25" class="node"><title>FormsModule </title>
<polygon fill="#fb8072" stroke="black" points="557.328,-461 458.672,-461 458.672,-425 557.328,-425 557.328,-461"/>
<text text-anchor="middle" x="508" y="-438.8" font-family="Times,serif" font-size="14.00">FormsModule </text>
</g>
<!-- SharedModule&#45;&gt;FormsModule  -->
<g id="edge27" class="edge"><title>SharedModule&#45;&gt;FormsModule </title>
<path fill="none" stroke="black" stroke-dasharray="5,2" d="M439.287,-381C477.649,-381 524.413,-381 524.413,-381 524.413,-381 524.413,-414.733 524.413,-414.733"/>
<polygon fill="black" stroke="black" points="520.913,-414.733 524.413,-424.733 527.913,-414.733 520.913,-414.733"/>
</g>
<!-- RouterModule  -->
<g id="node26" class="node"><title>RouterModule </title>
<polygon fill="#fb8072" stroke="black" points="440.652,-461 339.348,-461 339.348,-425 440.652,-425 440.652,-461"/>
<text text-anchor="middle" x="390" y="-438.8" font-family="Times,serif" font-size="14.00">RouterModule </text>
</g>
<!-- SharedModule&#45;&gt;RouterModule  -->
<g id="edge28" class="edge"><title>SharedModule&#45;&gt;RouterModule </title>
<path fill="none" stroke="black" stroke-dasharray="5,2" d="M390,-393.223C390,-393.223 390,-414.727 390,-414.727"/>
<polygon fill="black" stroke="black" points="386.5,-414.727 390,-424.727 393.5,-414.727 386.5,-414.727"/>
</g>
<!-- DocComponent  -->
<g id="node27" class="node"><title>DocComponent </title>
<polygon fill="#fb8072" stroke="black" points="321.154,-461 212.846,-461 212.846,-425 321.154,-425 321.154,-461"/>
<text text-anchor="middle" x="267" y="-438.8" font-family="Times,serif" font-size="14.00">DocComponent </text>
</g>
<!-- SharedModule&#45;&gt;DocComponent  -->
<g id="edge29" class="edge"><title>SharedModule&#45;&gt;DocComponent </title>
<path fill="none" stroke="black" stroke-dasharray="5,2" d="M340.567,-386C321.095,-386 303.292,-386 303.292,-386 303.292,-386 303.292,-414.965 303.292,-414.965"/>
<polygon fill="black" stroke="black" points="299.792,-414.965 303.292,-424.965 306.792,-414.965 299.792,-414.965"/>
</g>
<!-- RouterModule -->
<g id="node22" class="node"><title>RouterModule</title>
<polygon fill="#8dd3c7" stroke="black" points="261.653,-317 258.653,-321 237.653,-321 234.653,-317 164.347,-317 164.347,-281 261.653,-281 261.653,-317"/>
<text text-anchor="middle" x="213" y="-294.8" font-family="Times,serif" font-size="14.00">RouterModule</text>
</g>
<!-- RouterModule&#45;&gt;SharedModule -->
<g id="edge23" class="edge"><title>RouterModule&#45;&gt;SharedModule</title>
<path fill="none" stroke="black" d="M237.375,-317.035C237.375,-336.576 237.375,-365 237.375,-365 237.375,-365 330.447,-365 330.447,-365"/>
<polygon fill="black" stroke="black" points="330.447,-368.5 340.447,-365 330.447,-361.5 330.447,-368.5"/>
</g>
<!-- RebirthNGModule -->
<g id="node23" class="node"><title>RebirthNGModule</title>
<polygon fill="#8dd3c7" stroke="black" points="145.756,-317 142.756,-321 121.756,-321 118.756,-317 24.2438,-317 24.2438,-281 145.756,-281 145.756,-317"/>
<text text-anchor="middle" x="85" y="-294.8" font-family="Times,serif" font-size="14.00">RebirthNGModule</text>
</g>
<!-- RebirthNGModule&#45;&gt;SharedModule -->
<g id="edge24" class="edge"><title>RebirthNGModule&#45;&gt;SharedModule</title>
<path fill="none" stroke="black" d="M112.647,-317.045C112.647,-338.662 112.647,-372 112.647,-372 112.647,-372 330.734,-372 330.734,-372"/>
<polygon fill="black" stroke="black" points="330.734,-375.5 340.734,-372 330.734,-368.5 330.734,-375.5"/>
</g>
</g>
</svg>
